<svg xmlns="http://www.w3.org/2000/svg" viewBox="0 0 64 64">
  <!-- Dark background -->
  <rect width="64" height="64" rx="12" ry="12" fill="#0b0f19"/>
  
  <!-- White </> symbol -->
  <path fill="#ffffff" d="M22.8 20.7a2 2 0 0 1 .1 2.8L16.4 32l6.5 8.5a2 2 0 1 1-3.2 2.4l-7.8-10a2 2 0 0 1 0-2.8l7.8-10a2 2 0 0 1 3.1.4Zm18.4 0a2 2 0 0 0-.1 2.8l6.5 8.5-6.5 8.5a2 2 0 1 0 3.2 2.4l7.8-10a2 2 0 0 0 0-2.8l-7.8-10a2 2 0 0 0-3.1.4ZM28 46a2 2 0 0 0 2.4-1.4l7-25a2 2 0 1 0-3.9-1l-7 25A2 2 0 0 0 28 46Z"/>
</svg>
